<svg width="122" height="122" viewBox="0 0 122 122" fill="none" xmlns="http://www.w3.org/2000/svg">
<rect x="2" y="2" width="118" height="118" rx="7.3578" fill="#ECCC10"/>
<path d="M54.6667 32.5H70.5M57.8334 54.8983V32.5H67.3334V54.6667L83.3059 79.7665C85.1838 82.7174 84.3139 86.632 81.363 88.5099C80.3468 89.1565 79.1673 89.5 77.9628 89.5H47.2454C43.7476 89.5 40.9121 86.6645 40.9121 83.1667C40.9121 81.9557 41.2593 80.77 41.9126 79.7503L57.8334 54.8983ZM47.8584 70.5H77.4667L83.3428 79.778C85.2143 82.733 84.3359 86.6457 81.3809 88.5172C80.3672 89.1592 79.1921 89.5 77.9922 89.5H47.2556C43.7578 89.5 40.9223 86.6645 40.9223 83.1667C40.9223 81.9541 41.2704 80.7669 41.9253 79.7464L47.8584 70.5Z" stroke="#005263" stroke-width="1.94954" stroke-linecap="round"/>
<rect x="2" y="2" width="118" height="118" rx="7.3578" stroke="#BEA827" stroke-width="4"/>
</svg>
