<svg width="122" height="122" viewBox="0 0 122 122" fill="none" xmlns="http://www.w3.org/2000/svg">
<rect width="122" height="122" rx="9.3578" fill="#ECCC10"/>
<path fill-rule="evenodd" clip-rule="evenodd" d="M49.9167 35.6667C56.8457 35.6667 62.975 43.7963 66.7053 52.7194C69.448 48.3135 72.9799 45.0449 76.8334 45.0449C85.5779 45.0449 92.6667 61.8773 92.6667 70.6218C92.6667 79.3663 85.5779 86.4551 76.8334 86.4551C72.5494 86.4551 68.6628 84.7537 65.8124 81.9898C62.0425 86.575 56.3212 89.5 49.9167 89.5C38.5488 89.5 29.3334 80.2845 29.3334 68.9167C29.3334 66.023 29.9305 62.4481 31.0082 58.7263L31.4992 57.1238C34.8773 46.6692 41.8559 35.6667 49.9167 35.6667ZM49.9167 89.5C61.2846 89.5 70.5 80.2845 70.5 68.9167C70.5 66.023 69.9029 62.4481 68.8252 58.7263L68.3343 57.1238C64.9562 46.6692 57.9776 35.6667 49.9167 35.6667C41.8559 35.6667 34.8773 46.6692 31.4992 57.1238L31.0082 58.7263C29.9305 62.4481 29.3334 66.023 29.3334 68.9167C29.3334 80.2845 38.5488 89.5 49.9167 89.5Z" stroke="#005263" stroke-width="1.94954" stroke-linecap="round"/>
<rect x="2" y="2" width="118" height="118" rx="7.3578" stroke="black" stroke-opacity="0.2" stroke-width="4"/>
</svg>
