<svg width="122" height="122" viewBox="0 0 122 122" fill="none" xmlns="http://www.w3.org/2000/svg">
<rect x="2" y="2" width="118" height="118" rx="7.3578" fill="#ECCC10"/>
<path fill-rule="evenodd" clip-rule="evenodd" d="M49.4745 52.6964C64.1655 43.533 83.5033 48.0141 92.6667 62.7051L91.9428 63.8129C90.2008 66.3597 88.0909 68.6375 85.6799 70.571C73.3559 80.4542 55.8509 79.5149 44.6508 69.0154C42.8551 73.6454 38.1953 76.7694 32.981 76.3911L32.5 76.3461V75.5301C32.5 70.6384 34.6415 66.1703 38.1115 63.1129C34.8857 60.61 32.7613 56.7793 32.5225 52.4722L32.5 51.6592V49.0641L33.1564 49.0905C38.0874 49.4102 42.3093 52.433 44.3023 56.7326C45.874 55.2148 47.6089 53.86 49.4745 52.6964ZM67.4513 77.4357L67.8679 77.4154C65.5594 79.7143 62.7295 81.4604 59.5087 82.406C57.0064 83.1407 54.4878 83.3276 52.0591 83.0339C53.2451 80.625 54.1649 78.05 54.7886 75.367C58.8255 76.9233 63.1447 77.6226 67.4513 77.4357ZM70.542 47.8223L70.8698 48.3157C64.6643 47.3508 58.1451 48.236 52.1991 51.1771C50.382 47.3378 47.9448 43.991 45.0741 41.256C46.3127 40.5675 47.6391 40.0051 49.0393 39.594C57.3037 37.1676 65.7445 40.7158 70.542 47.8223Z" stroke="#005263" stroke-width="1.94954" stroke-linecap="round"/>
<path fill-rule="evenodd" clip-rule="evenodd" d="M78.4165 59.7333V59.4167V59.7333Z" stroke="#005263" stroke-width="2.92431" stroke-linecap="round" stroke-linejoin="round"/>
<rect x="2" y="2" width="118" height="118" rx="7.3578" stroke="#BEA827" stroke-width="4"/>
</svg>
