<svg width="130" height="130" viewBox="0 0 130 130" fill="none" xmlns="http://www.w3.org/2000/svg">
<rect x="2" y="2" width="126" height="126" rx="11.3578" fill="#ECCC10"/>
<path d="M76.0833 85.5833L75.7956 86.2122C72.8814 92.1957 66.1524 95.3714 59.6351 93.7421L58.6667 93.5L58.6835 92.9795C58.9515 88.8499 62.386 85.5833 66.5833 85.5833C62.2111 85.5833 58.6667 82.0389 58.6667 77.6667L59.6351 77.4246C66.3771 75.7391 73.3458 79.1957 76.0833 85.5833ZM76.0833 85.5833L77.9444 75.3477C78.6735 71.3374 76.104 67.4676 72.125 66.5833C67.3828 65.5295 62.7337 64.0935 58.2232 62.2893L57.0833 61.8333C52.3019 59.9208 49.1667 55.2899 49.1667 50.1402V49.1667M76.0833 85.5833L80.6583 83.6226C84.8607 81.8216 88.2887 78.5894 90.3333 74.5L90.5805 74.0057C92.4644 70.2378 92.9384 65.9202 91.9167 61.8333C90.9174 57.8362 88.1328 54.522 84.3677 52.8486L83.2083 52.3333C78.5106 50.2455 73.4271 49.1667 68.2863 49.1667H58.6667M49.1667 49.1667C45.6689 49.1667 42.8333 46.3311 42.8333 42.8333V39.6667M49.1667 49.1667H58.6667M58.6667 49.1667H42.8333C39.3355 49.1667 36.5 46.3311 36.5 42.8333V36.5M92.3927 67.4524L92.0433 68.0132C89.5266 71.859 85.0922 74.1724 80.339 73.8754L78.0637 73.7318M90.4305 58.2292L84.7052 63.3176L84.0879 63.8359C80.9394 66.3317 76.8814 67.3851 72.9165 66.7359M80.2155 51.1572L71.3091 59.2644L70.7454 59.7496C67.1064 62.713 62.1909 63.5948 57.7477 62.0793L58.2987 62.2511" stroke="#005263" stroke-width="1.94954" stroke-linecap="round"/>
<path d="M61.8333 55.5H62.15" stroke="#005263" stroke-width="2.92431" stroke-linecap="round"/>
<rect x="2" y="2" width="126" height="126" rx="11.3578" stroke="#BEA827" stroke-width="4"/>
</svg>
