<svg width="122" height="122" viewBox="0 0 122 122" fill="none" xmlns="http://www.w3.org/2000/svg">
<rect x="2" y="2" width="118" height="118" rx="7.3578" fill="#ECCC10"/>
<path fill-rule="evenodd" clip-rule="evenodd" d="M33.1558 80H88.8442C89.7186 80 90.4275 80.7089 90.4275 81.5833C90.4275 82.0032 90.2607 82.406 89.9637 82.7029L86.3333 86.3333H35.6667L32.0363 82.7029C31.4179 82.0846 31.4179 81.0821 32.0363 80.4637C32.3332 80.1668 32.7359 80 33.1558 80Z" stroke="#005263" stroke-width="1.94954" stroke-linecap="round"/>
<path fill-rule="evenodd" clip-rule="evenodd" d="M45.8001 48.3333C47.236 48.3333 48.5673 48.8464 49.6043 49.7108C48.6609 50.49 47.9621 51.5589 47.6451 52.7962L47.5329 53.3364L43.2667 80H35.6667L39.9329 53.3364C40.3941 50.4539 42.8809 48.3333 45.8001 48.3333ZM76.2001 48.3333C79.1193 48.3333 81.606 50.4539 82.0672 53.3364L86.3334 80H78.7334L74.4672 53.3364C74.2329 51.8717 73.4756 50.6038 72.4043 49.7108C73.4356 48.8453 74.7657 48.3333 76.2001 48.3333ZM61.0001 48.3333C63.8614 48.3333 66.2426 50.5316 66.4708 53.3839L68.6001 80H53.4001L55.5294 53.3839C55.7575 50.5316 58.1388 48.3333 61.0001 48.3333ZM64.7198 49.7862L64.9322 49.6005C65.9484 48.8029 67.2264 48.3333 68.6001 48.3333C71.5193 48.3333 74.006 50.4539 74.4672 53.3364L78.7334 80H68.6001L66.4708 53.3839C66.3694 52.1162 65.8427 50.9777 65.0376 50.104L64.7198 49.7862ZM53.4001 48.3333C54.8745 48.3333 56.2386 48.8743 57.2871 49.7811C56.2985 50.6899 55.6437 51.9548 55.5294 53.3839L53.4001 80H43.2667L47.5329 53.3364C47.9941 50.4539 50.4809 48.3333 53.4001 48.3333Z" stroke="#005263" stroke-width="1.94954" stroke-linecap="round"/>
<path fill-rule="evenodd" clip-rule="evenodd" d="M52.8036 43.5274C48.3631 42.6393 45.1667 38.7403 45.1667 34.2119V32.5L53.3632 34.1393C57.8037 35.0274 61.0001 38.9263 61.0001 43.4548C61.0001 38.9263 64.1964 35.0274 68.637 34.1393L76.8334 32.5V34.2119C76.8334 38.7403 73.637 42.6393 69.1965 43.5274L61.0001 45.1667L52.8036 43.5274Z" stroke="#005263" stroke-width="1.94954" stroke-linecap="round"/>
<rect x="2" y="2" width="118" height="118" rx="7.3578" stroke="#BEA827" stroke-width="4"/>
</svg>
