<svg width="122" height="122" viewBox="0 0 122 122" fill="none" xmlns="http://www.w3.org/2000/svg">
<rect x="2" y="2" width="118" height="118" rx="7.3578" fill="#ECCC10"/>
<g clip-path="url(#clip0_102_62)">
<path d="M75.3308 56.7744C75.6178 57.0645 75.8361 57.4029 75.9817 57.7666L80.0613 57.7476C81.2418 57.7412 82.3083 57.0418 82.7846 55.9616C83.4041 54.5567 82.8572 52.9324 81.5645 52.1734L81.3006 52.0383L84.3035 51.0247C85.0547 50.7707 85.6745 50.2291 86.0268 49.5187C86.7615 48.0373 86.1562 46.2408 84.6748 45.5061L83.4972 44.9199L84.3417 44.0783C86.0848 42.3352 86.0848 39.5092 84.3417 37.7661C82.5986 36.023 79.7725 36.023 78.0295 37.7661L77.1492 38.6435L76.4939 37.3253C76.1416 36.6149 75.5218 36.0732 74.7706 35.8192C73.2042 35.2896 71.505 36.1301 70.9753 37.6965L70.0465 40.4349L70.0235 40.3678C69.5951 39.2027 68.4883 38.4261 67.2469 38.4194C65.6036 38.4105 64.2643 39.7355 64.2554 41.3788L64.2323 45.8929C64.5104 46.0319 64.7696 46.2157 64.9988 46.4424M75.3308 56.7744C74.1679 55.5989 72.2722 55.5887 71.0966 56.7516L41.4986 86.0321C40.7706 86.7523 39.725 87.0504 38.7266 86.8225M75.3308 56.7744C76.2021 57.6552 76.4402 58.9806 75.9327 60.1084L78.525 58.8274C80.0071 58.0943 81.803 58.7015 82.5361 60.1836C82.8877 60.8944 82.9429 61.7156 82.6897 62.4671L82.158 64.0434L85.04 64.0437C87.3641 64.0437 89.2481 65.9277 89.2481 68.2518C89.2481 70.5759 87.3641 72.46 85.04 72.46L82.158 72.4572L82.6897 74.0366C83.2177 75.6036 82.3754 77.3019 80.8085 77.8299C80.057 78.0831 79.2358 78.0279 78.525 77.6763L75.6885 76.273L75.7759 76.5517C76.1533 78.0025 75.3915 79.5378 73.96 80.0932C72.8594 80.5202 71.6107 80.2606 70.7714 79.4304L63.7255 72.46L46.6679 89.3346C44.3347 91.6427 40.5784 91.6427 38.2453 89.3346L34.7998 85.926L38.7266 86.8225M38.7266 86.8225L35.654 86.1196L34.9507 83.0466M34.9507 83.0466C34.7228 82.0482 35.021 81.0026 35.7412 80.2746M34.9507 83.0466L35.8472 86.9735L32.4387 83.528C30.1305 81.1948 30.1305 77.4385 32.4387 75.1053L49.3132 58.0478L42.3429 51.0018C41.5126 50.1625 41.253 48.9138 41.68 47.8132C42.2354 46.3817 43.7707 45.6199 45.2215 45.9973L45.5002 46.0848L44.0969 43.2482C43.7454 42.5375 43.6901 41.7162 43.9433 40.9648C44.4713 39.3978 46.1696 38.5555 47.7366 39.0835L49.316 39.6153L49.3133 36.7332C49.3133 34.4092 51.1973 32.5251 53.5214 32.5251C55.8455 32.5251 57.7295 34.4092 57.7295 36.7332L57.7299 39.6153L59.3061 39.0835C60.0576 38.8303 60.8788 38.8855 61.5896 39.2371C63.0718 39.9702 63.679 41.7661 62.9458 43.2482L61.6648 45.8405C62.7926 45.333 64.1181 45.5712 64.9988 46.4424M35.7412 80.2746L56.3394 59.4511L64.2 51.5927L64.1989 51.5065L65.0216 50.6766M35.7412 80.2746L65.0216 50.6766M65.0216 50.6766C66.1846 49.5011 66.1743 47.6054 64.9988 46.4424M76.1982 45.8018L73.1903 48.8097M53.5214 45.2864L53.5214 49.5402M46.1025 63.3809L58.7269 76.0053M76.4868 68.2518L72.233 68.2518" stroke="#005263" stroke-width="1.94954" stroke-linecap="round"/>
</g>
<rect x="2" y="2" width="118" height="118" rx="7.3578" stroke="#BEA827" stroke-width="4"/>
<defs>
<clipPath id="clip0_102_62">
<rect width="76" height="76" fill="white" transform="translate(23 23)"/>
</clipPath>
</defs>
</svg>
