<svg width="122" height="122" viewBox="0 0 122 122" fill="none" xmlns="http://www.w3.org/2000/svg">
<rect x="2" y="2" width="118" height="118" rx="7.3578" fill="#ECCC10"/>
<path fill-rule="evenodd" clip-rule="evenodd" d="M43.426 32.0126L45.6322 31.3823C52.8932 29.3077 60.5722 29.1797 67.8982 31.0113L70.8662 31.7532C77.7857 33.4831 83.2561 38.7742 85.2155 45.6323L86.0398 48.5171C87.5583 53.8318 87.2683 59.5003 85.2155 64.6323L84.989 65.1985C83.294 69.4361 79.2993 72.2811 74.781 72.531L74.1322 72.5489C69.0075 72.5489 64.0354 74.293 60.0337 77.4944L58.2989 78.8823C53.4251 82.7813 46.8005 83.6806 41.0637 81.2219L39.2989 80.4656C32.4345 77.5237 27.6462 71.1609 26.7199 63.7504L26.194 59.5433C25.4521 53.6078 26.7213 47.5949 29.7989 42.4656C32.8509 37.3789 37.7221 33.6423 43.426 32.0126ZM67.8982 31.0113L70.8662 31.7532C77.7857 33.4831 83.2561 38.7742 85.2155 45.6323L86.0398 48.5171C86.2376 49.2095 86.4047 49.9079 86.5413 50.6103C86.2467 52.1491 85.8034 53.6627 85.2155 55.1323L84.989 55.6985C83.294 59.9361 79.2993 62.7811 74.781 63.031L74.1322 63.0489C69.0075 63.0489 64.0354 64.793 60.0337 67.9944L58.2989 69.3823C53.4251 73.2813 46.8005 74.1806 41.0637 71.7219L39.2989 70.9656C32.4345 68.0237 27.6462 61.6609 26.7199 54.2504L26.3859 51.6266C26.9473 48.411 28.0964 45.3031 29.7989 42.4656C32.8509 37.3789 37.7221 33.6423 43.426 32.0126L45.6322 31.3823C52.8932 29.3077 60.5722 29.1797 67.8982 31.0113ZM86.6405 51.3498C83.6384 45.1626 77.3656 41.2341 70.4885 41.2341H69.4614C61.4571 41.2341 53.6288 38.8851 46.9468 34.4784L44.9197 33.1415C44.3544 32.7687 43.7786 32.4168 43.1936 32.0859L43.426 32.0126L45.6322 31.3823C49.2627 30.345 52.9977 29.7943 56.7408 29.732L58.1447 29.7315C61.4204 29.7837 64.6931 30.21 67.8982 31.0113L70.8662 31.7532C77.7857 33.4831 83.2561 38.7742 85.2155 45.6323L86.0398 48.5171C86.3245 49.5136 86.5456 50.5226 86.7035 51.5381L86.6905 51.4534C86.6739 51.4189 86.6573 51.3843 86.6405 51.3498ZM37.8281 52.3964C37.8281 55.0197 40.6636 57.1464 44.1614 57.1464C47.6592 57.1464 50.4947 55.0197 50.4947 52.3964C50.4947 49.773 47.6592 47.6464 44.1614 47.6464C40.6636 47.6464 37.8281 49.773 37.8281 52.3964Z" stroke="#005263" stroke-width="1.94954" stroke-linecap="square"/>
<rect x="2" y="2" width="118" height="118" rx="7.3578" stroke="#BEA827" stroke-width="4"/>
</svg>
