<svg width="122" height="122" viewBox="0 0 122 122" fill="none" xmlns="http://www.w3.org/2000/svg">
<rect x="2" y="2" width="118" height="118" rx="7.3578" fill="#ECCC10"/>
<path fill-rule="evenodd" clip-rule="evenodd" d="M33.9734 88.0265L71.1678 50.8318L33.9734 88.0265ZM51.207 52.2321C56.3324 56.0762 57.3711 63.3474 53.5271 68.4728C53.0324 69.1323 52.4694 69.7366 51.8478 70.2758L51.207 70.7928C46.0816 66.9488 45.0429 59.6776 48.887 54.5521C49.3816 53.8926 49.9447 53.2884 50.5663 52.7492L51.207 52.2321ZM60.4873 42.9517C65.6127 46.7958 66.6514 54.067 62.8073 59.1924C62.3127 59.852 61.7496 60.4562 61.128 60.9954L60.4873 61.5125C55.3619 57.6684 54.3232 50.3972 58.1673 45.2718C58.6619 44.6123 59.225 44.008 59.8466 43.4688L60.4873 42.9517ZM69.7676 33.6714C74.893 37.5155 75.9317 44.7867 72.0876 49.9121C71.593 50.5716 71.0299 51.1759 70.4083 51.715L69.7676 52.2321C64.6422 48.388 63.6035 41.1168 67.4476 35.9914C67.9422 35.3319 68.5053 34.7276 69.1269 34.1885L69.7676 33.6714ZM88.3282 52.2321C84.4842 57.3575 77.2131 58.3962 72.0877 54.5522C71.4282 54.0576 70.8239 53.4945 70.2847 52.8729L69.7676 52.2321C73.6116 47.1068 80.8827 46.068 86.008 49.912C86.6676 50.4066 87.2719 50.9697 87.8111 51.5913L88.3282 52.2321ZM79.0479 61.5125C75.2039 66.6378 67.9328 67.6766 62.8074 63.8326C62.1479 63.338 61.5436 62.7749 61.0044 62.1533L60.4873 61.5125C64.3313 56.3871 71.6024 55.3484 76.7277 59.1924C77.3873 59.687 77.9916 60.2501 78.5308 60.8717L79.0479 61.5125ZM69.7676 70.7928C65.9236 75.9182 58.6525 76.957 53.5272 73.113C52.8676 72.6183 52.2633 72.0552 51.7241 71.4336L51.207 70.7928C55.051 65.6675 62.3221 64.6287 67.4475 68.4727C68.107 68.9674 68.7113 69.5305 69.2505 70.1521L69.7676 70.7928ZM41.707 61.7321C46.8324 65.5762 47.8711 72.8474 44.0271 77.9728C43.5324 78.6323 42.9694 79.2366 42.3478 79.7758L41.707 80.2928C36.5816 76.4488 35.5429 69.1776 39.387 64.0521C39.8816 63.3926 40.4447 62.7884 41.0663 62.2492L41.707 61.7321ZM60.2676 80.2928C56.4236 85.4182 49.1525 86.457 44.0272 82.613C43.3676 82.1183 42.7633 81.5552 42.2241 80.9336L41.707 80.2928C45.551 75.1675 52.8221 74.1287 57.9475 77.9727C58.607 78.4674 59.2113 79.0305 59.7505 79.6521L60.2676 80.2928ZM88.6689 33.3329C89.5749 39.6753 85.168 45.5513 78.8257 46.4573C78.0095 46.5739 77.1841 46.603 76.3633 46.5447L75.5446 46.4572C74.6385 40.1149 79.0455 34.2389 85.3878 33.3329C86.476 33.1774 87.5807 33.1774 88.6689 33.3329Z" stroke="#005263" stroke-width="1.94954" stroke-linecap="round"/>
<rect x="2" y="2" width="118" height="118" rx="7.3578" stroke="#BEA827" stroke-width="4"/>
</svg>
