<svg width="122" height="122" viewBox="0 0 122 122" fill="none" xmlns="http://www.w3.org/2000/svg">
<rect x="2" y="2" width="118" height="118" rx="7.3578" fill="#ECCC10"/>
<g clip-path="url(#clip0_102_74)">
<path fill-rule="evenodd" clip-rule="evenodd" d="M47.5649 89.4534C45.7099 91.3084 42.7023 91.3084 40.8474 89.4534C39.3855 87.9916 39.0757 85.814 39.9179 84.0487L39.5345 83.6654C37.7693 84.5075 35.5917 84.1977 34.1298 82.7359C32.2749 80.8809 32.2749 77.8734 34.1298 76.0184C35.9848 74.1634 38.9924 74.1634 40.8474 76.0184C41.2405 76.4115 41.5503 76.8565 41.7768 77.3312L48.6845 70.4204L53.1628 74.8988L46.2551 81.8078C46.7287 82.0342 47.1726 82.3436 47.5649 82.7359C49.4199 84.5909 49.4199 87.5984 47.5649 89.4534ZM84.5112 39.072C91.9312 46.492 91.9312 58.5221 84.5112 65.9421C81.7185 68.7348 76.4066 70.8688 68.5755 72.3441C65.4471 72.9334 62.5691 74.4521 60.3169 76.7019L59.8803 77.138C58.6437 78.3746 56.6386 78.3746 55.402 77.138L46.4453 68.1813C45.2086 66.9446 45.2086 64.9396 46.4453 63.7029L46.8761 63.2721C49.1296 61.0187 50.6507 58.1378 51.2404 55.0061C52.7149 47.176 54.8485 41.8647 57.6411 39.072C65.0611 31.6521 77.0912 31.6521 84.5112 39.072Z" stroke="#005263" stroke-width="1.94954" stroke-linecap="round"/>
</g>
<rect x="2" y="2" width="118" height="118" rx="7.3578" stroke="#BEA827" stroke-width="4"/>
<defs>
<clipPath id="clip0_102_74">
<rect width="76" height="76" fill="white" transform="translate(23 23)"/>
</clipPath>
</defs>
</svg>
