<svg width="122" height="122" viewBox="0 0 122 122" fill="none" xmlns="http://www.w3.org/2000/svg">
<rect x="2" y="2" width="118" height="118" rx="7.3578" fill="#ECCC10"/>
<path d="M54.6667 32.5H70.5M49.3073 56.2866L52.2483 51.6158C54.8274 47.5198 56.4851 42.912 57.1067 38.1117L57.8334 32.5H67.3334L67.9903 37.7558C68.6006 42.6377 70.2675 47.3279 72.875 51.5L75.8707 56.2931C76.4998 57.2996 76.8334 58.4627 76.8334 59.6497V83.1667C76.8334 86.6645 73.9978 89.5 70.5 89.5H54.6667C51.1689 89.5 48.3334 86.6645 48.3334 83.1667V59.6612C48.3334 58.467 48.671 57.2971 49.3073 56.2866ZM48.3334 67.3333L50.323 67.9965C55.0266 69.5644 60.2002 68.7249 64.1667 65.75L64.8353 65.2485C68.1142 62.7894 72.4394 62.2792 76.1797 63.865L76.8334 64.1667V83.1667C76.8334 86.6645 73.9978 89.5 70.5 89.5H54.6667C51.1689 89.5 48.3334 86.6645 48.3334 83.1667V67.3333Z" stroke="#005263" stroke-width="1.94954" stroke-linecap="round"/>
<rect x="2" y="2" width="118" height="118" rx="7.3578" stroke="#BEA827" stroke-width="4"/>
</svg>
