<svg width="122" height="122" viewBox="0 0 122 122" fill="none" xmlns="http://www.w3.org/2000/svg">
<rect x="2" y="2" width="118" height="118" rx="7.3578" fill="#ECCC10"/>
<path d="M61 46.75V78.4167M50.1884 48.605C47.715 51.0783 47.715 55.0883 50.1884 57.5617C51.6645 59.0378 53.688 59.6329 55.6055 59.3471M68.645 79.7283C71.1184 77.255 71.1184 73.245 68.645 70.7716M74.8313 57.9579C72.9763 56.1029 69.9688 56.1029 68.1138 57.9579M47.2138 73.35C49.0688 75.205 52.0763 75.205 53.9313 73.35M61 89.5C76.8334 89.5 83.1667 76.8333 83.1667 64.5392C83.1667 51.6242 75.7778 42 61 35.6667C46.2223 42 38.8334 51.6242 38.8334 64.5392C38.8334 76.8333 45.1667 89.5 61 89.5ZM61 44.1266L64.3628 47.4884C65.2487 47.0171 66.2599 46.75 67.3334 46.75C70.8312 46.75 73.6667 49.5855 73.6667 53.0833C73.6667 54.3884 73.2719 55.6013 72.5953 56.6092C75.0627 57.4687 76.8334 59.8192 76.8334 62.5833C76.8334 63.7373 76.5247 64.8193 75.9855 65.751C76.5247 66.6807 76.8334 67.7626 76.8334 68.9167C76.8334 72.4145 73.9978 75.25 70.5 75.25C70.5 78.7478 67.6645 81.5833 64.1667 81.5833C63.013 81.5833 61.9314 81.2749 60.9998 80.7359C60.0711 81.2742 58.9884 81.5833 57.8334 81.5833C54.3356 81.5833 51.5 78.7478 51.5 75.25L51.0274 75.2326C47.7503 74.9908 45.1667 72.2555 45.1667 68.9167C45.1667 67.7626 45.4754 66.6807 46.0146 65.7489C45.4754 64.8193 45.1667 63.7373 45.1667 62.5833C45.1667 59.8192 46.9374 57.4687 49.4064 56.6042C48.7281 55.6013 48.3334 54.3884 48.3334 53.0833C48.3334 49.5855 51.1689 46.75 54.6667 46.75C55.7402 46.75 56.7513 47.0171 57.6373 47.4884L61 44.1266Z" stroke="#005263" stroke-width="1.94954" stroke-linecap="square"/>
<rect x="2" y="2" width="118" height="118" rx="7.3578" stroke="#BEA827" stroke-width="4"/>
</svg>
