<svg width="122" height="122" viewBox="0 0 122 122" fill="none" xmlns="http://www.w3.org/2000/svg">
<rect x="2" y="2" width="118" height="118" rx="7.3578" fill="#ECCC10"/>
<g clip-path="url(#clip0_102_67)">
<path fill-rule="evenodd" clip-rule="evenodd" d="M45.9021 90.8446C44.0471 92.6996 41.0396 92.6996 39.1846 90.8446C37.7228 89.3828 37.4129 87.2052 38.2551 85.4399L37.8718 85.0566C36.1065 85.8988 33.9289 85.5889 32.4671 84.1271C30.6121 82.2721 30.6121 79.2646 32.4671 77.4096C34.3221 75.5546 37.3296 75.5546 39.1846 77.4096C39.5778 77.8027 39.8876 78.2477 40.1141 78.7224L45.8961 72.9381C46.5021 73.7883 47.1864 74.5998 47.9492 75.3625C48.7128 76.1261 49.5251 76.811 50.3762 77.4174L44.5923 83.1991C45.0659 83.4254 45.5098 83.7348 45.9021 84.1271C47.7571 85.9821 47.7571 88.9896 45.9021 90.8446ZM62.2692 34.177L62.3117 34.1299C66.0217 30.42 75.0443 33.4275 82.4643 40.8475C89.8842 48.2674 92.8918 57.29 89.1818 61L74.8193 75.3625C67.3993 82.7825 55.3692 82.7825 47.9492 75.3625C40.5292 67.9426 40.5292 55.9124 47.9492 48.4925L62.2692 34.177ZM62.3117 34.1299C58.6017 37.8399 61.6093 46.8625 69.0292 54.2825C76.4492 61.7024 85.4718 64.71 89.1818 61C92.8918 57.29 89.8842 48.2674 82.4643 40.8475C75.0443 33.4275 66.0217 30.42 62.3117 34.1299ZM71.2684 43.0866C70.0317 44.3233 71.0343 47.3308 73.5076 49.8041C75.9809 52.2775 78.9884 53.28 80.2251 52.0433C81.4618 50.8067 80.4592 47.7991 77.9859 45.3258C75.5126 42.8525 72.5051 41.85 71.2684 43.0866Z" stroke="#005263" stroke-width="1.94954" stroke-linecap="round"/>
</g>
<rect x="2" y="2" width="118" height="118" rx="7.3578" stroke="#BEA827" stroke-width="4"/>
<defs>
<clipPath id="clip0_102_67">
<rect width="76" height="76" fill="white" transform="translate(23 23)"/>
</clipPath>
</defs>
</svg>
