<svg width="122" height="122" viewBox="0 0 122 122" fill="none" xmlns="http://www.w3.org/2000/svg">
<rect x="2" y="2" width="118" height="118" rx="7.3578" fill="#ECCC10"/>
<path fill-rule="evenodd" clip-rule="evenodd" d="M80.6779 68.8536C81.1416 68.3898 81.8935 68.3898 82.3573 68.8536C82.821 69.3173 82.821 70.0692 82.3573 70.533L81.5176 71.3727C80.398 76.9706 78.9985 80.6092 77.3191 82.2886C74.8001 84.8077 71.241 84.6073 68.9222 82.2886C66.6035 79.9699 66.4032 76.4108 68.9222 73.8917C70.6016 72.2123 74.2403 70.8129 79.8382 69.6933L80.6779 68.8536ZM39.4502 68.3791C39.7781 67.8112 40.5044 67.6166 41.0723 67.9445L42.1008 68.5382C47.7977 68.1708 51.6746 68.5809 53.7314 69.7684C56.8166 71.5496 57.5443 75.0393 55.9047 77.8791C54.2651 80.719 50.8791 81.8337 47.7939 80.0524C45.7371 78.8649 43.4435 75.7125 40.9133 70.595L39.8848 70.0013C39.3169 69.6734 39.1223 68.9471 39.4502 68.3791ZM63.5108 44.2392C64.1666 44.2392 64.6983 44.7708 64.6983 45.4267V46.6142C67.8649 51.3642 69.4483 54.9267 69.4483 57.3017C69.4483 60.8642 66.79 63.2392 63.5108 63.2392C60.2316 63.2392 57.5733 60.8642 57.5733 57.3017C57.5733 54.9267 59.1566 51.3642 62.3233 46.6142V45.4267C62.3233 44.7708 62.8549 44.2392 63.5108 44.2392ZM79.5143 41.1162C82.6818 40.2675 85.8642 41.8735 86.7862 45.3146C87.4009 47.6087 86.7936 51.4596 84.9642 56.8674L85.2716 58.0144C85.4413 58.6479 85.0654 59.299 84.4319 59.4688C83.7984 59.6385 83.1472 59.2626 82.9775 58.6291L82.6701 57.4821C78.382 53.7135 75.9306 50.6822 75.3159 48.3881C74.3938 44.947 76.3469 41.9649 79.5143 41.1162ZM46.7321 35.0242L46.9695 35.0629C47.603 35.2326 47.979 35.8838 47.8092 36.5173L47.5019 37.6643C49.3313 43.072 49.9386 46.923 49.3239 49.217C48.4019 52.6581 45.2194 54.2642 42.052 53.4155C38.8845 52.5668 36.9315 49.5847 37.8535 46.1435C38.4682 43.8495 40.9197 40.8182 45.2078 37.0496L45.5152 35.9026C45.6849 35.2691 46.3361 34.8931 46.9695 35.0629L46.7321 35.0242Z" stroke="#005263" stroke-width="1.94954" stroke-linecap="round"/>
<rect x="2" y="2" width="118" height="118" rx="7.3578" stroke="#BEA827" stroke-width="4"/>
</svg>
