<svg width="122" height="122" viewBox="0 0 122 122" fill="none" xmlns="http://www.w3.org/2000/svg">
<rect x="2" y="2" width="118" height="118" rx="7.3578" fill="#ECCC10"/>
<path d="M49.7246 81.7754C48.865 80.9158 48.3334 79.7283 48.3334 78.4167C48.3334 75.7933 50.46 73.6667 53.0834 73.6667C54.395 73.6667 55.5825 74.1983 56.4421 75.0579M61.2717 70.2283C60.1256 69.0822 59.4167 67.4989 59.4167 65.75C59.4167 62.2522 62.2522 59.4167 65.75 59.4167C67.4989 59.4167 69.0823 60.1256 70.2284 61.2717M73.4746 56.4421C72.615 55.5825 72.0834 54.395 72.0834 53.0833C72.0834 50.46 74.21 48.3333 76.8334 48.3333C78.145 48.3333 79.3325 48.865 80.1921 49.7246M86.3334 52.1245C86.3334 55.6911 84.5509 59.0216 81.5834 61C78.6158 62.9784 76.8334 66.3089 76.8334 69.8755V70.5C76.8334 74.2221 74.3001 77.4666 70.6891 78.3694L69.705 78.6154C66.1413 79.5063 63.0376 81.6936 61 84.75C59.0217 87.7175 55.6911 89.5 52.1246 89.5H38.8334C40.8609 87.4724 42 84.7224 42 81.855V79.3755C42 75.8089 43.7825 72.4784 46.75 70.5C49.8065 68.4624 51.9937 65.3587 52.8846 61.795L53.5146 59.2748C54.1917 56.5666 56.6251 54.6667 59.4167 54.6667C62.3278 54.6667 64.9891 53.0219 66.291 50.4181L67.6677 47.6647C69.4035 44.193 72.9519 42 76.8334 42H78.6883C81.5558 42 84.3058 40.8609 86.3334 38.8333V52.1245ZM40.4167 57.8333C43.04 57.8333 45.1667 55.7067 45.1667 53.0833C45.1667 50.46 43.04 48.3333 40.4167 48.3333C37.7933 48.3333 35.6667 50.46 35.6667 53.0833C35.6667 55.7067 37.7933 57.8333 40.4167 57.8333ZM40.4167 42C43.04 42 45.1667 39.8734 45.1667 37.25C45.1667 34.6266 43.04 32.5 40.4167 32.5C37.7933 32.5 35.6667 34.6266 35.6667 37.25C35.6667 39.8734 37.7933 42 40.4167 42ZM56.25 45.1667C58.8734 45.1667 61 43.04 61 40.4167C61 37.7933 58.8734 35.6667 56.25 35.6667C53.6267 35.6667 51.5 37.7933 51.5 40.4167C51.5 43.04 53.6267 45.1667 56.25 45.1667Z" stroke="#005263" stroke-width="1.94954" stroke-linecap="round"/>
<rect x="2" y="2" width="118" height="118" rx="7.3578" stroke="#BEA827" stroke-width="4"/>
</svg>
