<svg width="122" height="122" viewBox="0 0 122 122" fill="none" xmlns="http://www.w3.org/2000/svg">
<rect x="2" y="2" width="118" height="118" rx="7.3578" fill="#ECCC10"/>
<path d="M34.7178 62.1023C39.9518 66.101 43.3718 72.0246 44.2178 78.5567M31.7586 64.9868L32.855 65.7817C36.9427 68.7456 39.577 73.3083 40.0999 78.3303L40.4005 81.217C40.6413 83.5293 42.711 85.2086 45.0233 84.9678C45.2712 84.942 45.5163 84.8942 45.7557 84.825C48.5864 84.0072 50.4796 81.346 50.324 78.4037L49.8079 68.6481C49.5518 63.8061 46.9875 59.3812 42.9137 56.7517L41.9554 56.1332C38.6756 54.0161 34.3946 54.3055 31.4295 56.8446C29.2528 58.7086 28.9993 61.9842 30.8633 64.161C31.1283 64.4704 31.4288 64.7476 31.7586 64.9868Z" stroke="#005263" stroke-width="1.94954" stroke-linecap="round"/>
<path d="M66.8366 38.2103C62.8159 43.4275 61.0456 50.0344 61.919 56.5629M70.4415 40.2306L69.5883 41.2822C66.4069 45.2031 65.0433 50.2921 65.838 55.2784L66.2948 58.1445C66.6607 60.4403 65.0961 62.5981 62.8003 62.964C62.5542 63.0032 62.3051 63.0205 62.0559 63.0157C59.11 62.9583 56.5925 60.8778 55.9813 57.9954L53.9548 48.4387C52.949 43.6954 54.2808 38.7576 57.5352 35.1633L58.3007 34.3179C60.9208 31.4241 65.1309 30.5955 68.6521 32.2807C71.2371 33.5178 72.3298 36.6162 71.0927 39.2012C70.9168 39.5687 70.6982 39.9142 70.4415 40.2306Z" stroke="#005263" stroke-width="1.94954" stroke-linecap="round"/>
<path d="M68.0924 76.3585C74.183 73.8506 79.0196 69.014 81.5275 62.9235M65.9806 72.8064L67.2453 72.3223C71.9609 70.5174 75.6863 66.792 77.4913 62.0764L78.5287 59.3659C79.3598 57.1947 81.7936 56.1083 83.9648 56.9393C84.1975 57.0284 84.4219 57.138 84.6353 57.2668C87.1578 58.7894 88.2978 61.85 87.3859 64.6517L84.3625 73.9413C82.862 78.552 79.2398 82.1624 74.6242 83.648L73.5385 83.9974C69.8225 85.1935 65.7623 83.806 63.5554 80.5859C61.9352 78.2221 62.5382 74.9924 64.902 73.3723C65.2381 73.142 65.6001 72.952 65.9806 72.8064Z" stroke="#005263" stroke-width="1.94954" stroke-linecap="round"/>
<rect x="2" y="2" width="118" height="118" rx="7.3578" stroke="#BEA827" stroke-width="4"/>
</svg>
