<svg width="122" height="122" viewBox="0 0 122 122" fill="none" xmlns="http://www.w3.org/2000/svg">
<rect x="2" y="2" width="118" height="118" rx="7.3578" fill="#ECCC10"/>
<path fill-rule="evenodd" clip-rule="evenodd" d="M60.3712 50.7429C66.5893 46.1885 75.2871 46.7871 80.822 52.3221L81.5833 53.0833C82.7823 54.2824 83.4018 55.9429 83.281 57.6344C83.0509 60.8554 80.2533 63.28 77.0323 63.0499L62.8938 62.04C62.8428 62.0364 62.7918 62.0321 62.741 62.0272C62.868 62.6783 62.9818 63.337 63.0873 63.9971L62.5565 66.4941C61.5372 71.3327 61.8573 76.3578 63.4824 81.028L63.7233 81.7202C63.8188 81.9947 63.9317 82.2583 64.0602 82.51C63.6365 84.9982 61.8726 87.098 59.4166 87.9167C56.9873 88.7264 54.3615 87.4135 53.5518 84.9842L53.4523 84.6425L52.8845 82.3717C52.0701 79.1139 50.7632 76.0022 49.0111 73.1433L48.3333 72.0833C46.2487 68.9564 44.8908 65.4023 44.3593 61.6819L43.2058 53.6075C42.9429 51.7673 43.1602 49.949 43.7754 48.295L59.0582 50.2056C59.4615 50.256 59.865 50.2659 60.2632 50.2372L60.3712 50.7429ZM59.4166 51.5C56.9007 53.6565 56.6094 57.4442 58.7658 59.9601C59.8088 61.1769 61.2953 61.9258 62.8938 62.04L77.0323 63.0499C80.2533 63.28 83.0509 60.8554 83.281 57.6344C83.4018 55.9429 82.7823 54.2824 81.5833 53.0833L80.822 52.3221C74.9975 46.4976 65.6707 46.1394 59.4166 51.5ZM63.4591 62.2129L75.9848 63.2079C75.9303 63.6528 75.83 64.0984 75.6812 64.5388L75.4239 65.3686C74.4018 68.9844 74.5883 72.8444 75.9689 76.356L76.1927 76.9772C77.1946 80.2137 75.6512 83.7364 72.5226 85.1675L72.1731 85.3273C71.9959 85.4084 71.8149 85.481 71.6309 85.5451C68.391 86.6725 64.8507 84.96 63.7233 81.7202L63.4824 81.028C61.8573 76.3578 61.5372 71.3327 62.5565 66.4941L63.4591 62.2129ZM62.6958 38.29L64.1666 39.7608C66.5669 42.1611 66.5669 46.0526 64.1666 48.4529C64.0098 48.6097 63.8456 48.757 63.6748 48.8945C62.905 49.2053 62.1556 49.5853 61.4332 50.0293C60.672 50.2452 59.8648 50.3064 59.0582 50.2056L41.8777 48.058C38.3724 47.6199 35.886 44.4231 36.3242 40.9178C36.5394 39.1959 37.445 37.6353 38.8333 36.5942C46.1014 31.1431 56.2717 31.8659 62.6958 38.29Z" stroke="#005263" stroke-width="1.94954" stroke-linecap="round"/>
<rect x="2" y="2" width="118" height="118" rx="7.3578" stroke="#BEA827" stroke-width="4"/>
</svg>
